<?xml version="1.0" encoding="utf-8"?>
<!-- Generator: Adobe Illustrator 25.2.3, SVG Export Plug-In . SVG Version: 6.00 Build 0)  -->
<svg version="1.1" id="Layer_1" xmlns="http://www.w3.org/2000/svg" xmlns:xlink="http://www.w3.org/1999/xlink" x="0px" y="0px"
	 viewBox="0 0 356.6 606.8" style="enable-background:new 0 0 356.6 606.8;" xml:space="preserve">
<style type="text/css">
	.st0{fill:#FFFFFF;}
</style>
<g id="Layer_2_1_">
	<g id="Layer_1-2">
		<path class="st0" d="M179.5,266.8c2.7,0.6,5.4-1,6-3.7L244.3,10h13L195,275c-0.6,2.7,1,5.4,3.7,6c0.4,0.1,0.8,0.1,1.1,0.1
			c2.3,0,4.3-1.6,4.9-3.8L268.5,6.1c0.6-2.7-1.1-5.4-3.7-6C264.4,0,264,0,263.6,0h-23.3c-2.3,0-4.3,1.6-4.9,3.9l-59.7,257
			C175.2,263.5,176.8,266.2,179.5,266.8z"/>
		<path class="st0" d="M271,545.9c-47.2-25.6-75.9-60.6-85.4-104.1c-7.1-32.5-0.3-57.9-0.2-58.1c0.9-2.6-0.4-5.5-3-6.4
			s-5.5,0.4-6.4,3c-0.1,0.2-0.2,0.5-0.2,0.7c-0.3,1.1-7.6,27.6-0.1,62.5c4.2,19.4,13.6,43.6,34.2,67.2c-0.2,0.4-0.3,0.9-0.4,1.3
			c-1.1,7.5-2.6,10-7.3,17c-5.2,7.7-15.7,18.1-36,23.6c-5.1,1.4-23,5.4-39.7-1c-7.1-2.8-13.5-7.1-18.8-12.5l6.8-7
			c6.8,2.9,14.1,4.6,21.5,4.9c0.7,0,1.4,0,2.1,0c12,0,23.7-3.6,33.7-10.3c2.2-1.7,2.6-4.8,0.8-7c-1.5-2-4.3-2.5-6.5-1.2
			c-12.9,8.8-29.3,11-44.1,5.9l29-29.4c1.8-2.1,1.6-5.2-0.5-7.1c-1.9-1.7-4.8-1.7-6.7,0.1l-71.4,72.7l48-72c1.7-2.2,1.3-5.3-0.9-7
			c-2.2-1.7-5.3-1.3-7,0.9c-0.1,0.2-0.3,0.4-0.4,0.5l-20.2,30.3c-4.7-12.6-6.9-25.9-6.4-39.3c2.2-6.4,4.5-13,7-19.9
			c16-43.7,33.8-81.6,34-82c0-0.1,0-0.2,0.1-0.2c0.1-0.2,0.1-0.3,0.2-0.5c0-0.2,0.1-0.3,0.1-0.5c0-0.1,0-0.3,0.1-0.5
			c0-0.2,0-0.3,0-0.5v-0.4c0-0.2,0-0.3-0.1-0.5c0-0.1-0.1-0.3-0.1-0.4c0-0.2-0.1-0.3-0.2-0.5c-0.1-0.1-0.1-0.3-0.2-0.4
			c-0.1-0.2-0.2-0.3-0.3-0.4c-0.1-0.1-0.2-0.2-0.3-0.4c-0.1-0.2-0.2-0.3-0.4-0.4c0,0-0.1-0.1-0.2-0.2c-0.1,0-0.1-0.1-0.2-0.1
			c-0.1-0.1-0.3-0.2-0.4-0.3l-0.4-0.2c-0.1,0-0.1-0.1-0.2-0.1l-0.2-0.1c-0.2-0.1-0.3-0.1-0.5-0.2l-0.4-0.1l-0.5-0.1H122
			c-0.2,0-0.3,0-0.5,0l-0.4,0.1c-0.2,0-0.3,0.1-0.5,0.1l-0.4,0.1c-0.2,0.1-0.3,0.1-0.5,0.2l-0.4,0.2c-0.1,0.1-0.3,0.2-0.4,0.3
			c-0.1,0.1-0.3,0.2-0.4,0.4s-0.1,0.1-0.2,0.2c-0.3,0.4-32.4,35.8-62.7,76.5C14.3,499-4.2,537.7,0.8,558.5c0.5,2.2,2.5,3.8,4.8,3.8
			c0.4,0,0.8,0,1.2-0.1c2.7-0.6,4.3-3.3,3.7-6c-7.2-29.9,52.8-109.4,93.4-157.6c-18.8,44.1-50,124.7-46.7,167L34.9,599
			c-1.5,2.3-0.8,5.4,1.5,6.9c2,1.3,4.5,1,6.2-0.6l58.2-59.2c6.2,6.5,13.8,11.5,22.2,14.8c7.7,2.8,15.8,4.3,24,4.2
			c7.4,0,14.7-1,21.9-2.9c23.2-6.3,35.5-18.5,41.7-27.6c3.8-5.7,6.2-9.4,7.7-15.1c12.4,12.4,28.1,24.4,48.1,35.2
			c2.4,1.3,5.4,0.4,6.8-2C274.4,550.2,273.5,547.2,271,545.9z M77.6,499.6c1.6,8.2,4.2,16.2,7.7,23.8l-18.1,27.1
			C68.3,537,71.7,520,77.6,499.6z"/>
		<path class="st0" d="M353.1,539.4C284.9,517.5,249,474.8,231,442.9c-19.6-34.8-23.1-64.8-23.1-65.1c-0.5-2.7-3.1-4.5-5.8-4.1
			c-2.5,0.4-4.2,2.6-4.1,5.1c0.1,1.3,3.6,32,24.1,68.5c18.9,33.6,56.4,78.6,128,101.6c2.7,0.6,5.4-1.1,6-3.8
			C356.6,542.8,355.3,540.4,353.1,539.4L353.1,539.4z"/>
		<path class="st0" d="M129.1,397.7c-2.7-0.5-5.3,1.2-5.9,3.9c-0.3,1.5-7.3,36.5,9.6,67.1c1.2,2.5,4.1,3.6,6.6,2.5
			c2.5-1.2,3.6-4.1,2.5-6.6c-0.1-0.2-0.2-0.4-0.4-0.7c-15-27.2-8.7-59.8-8.6-60.3C133.5,400.9,131.8,398.2,129.1,397.7z"/>
		<path class="st0" d="M148.9,401.6c-2.7-0.3-5.2,1.7-5.5,4.4c-0.2,1.5-4.1,37.8,13.3,58.4c1.9,2,5.1,2,7.1,0.1
			c1.8-1.7,2-4.5,0.6-6.6c-14.6-17.3-11-50.5-11-50.9C153.5,404.4,151.6,402,148.9,401.6z"/>
		<path class="st0" d="M155.5,329.5c0.4,2.4,2.5,4.2,4.9,4.2c0.3,0,0.5,0,0.8-0.1c2.7-0.4,4.6-3,4.1-5.7L152.8,251
			c-0.6-2.7-3.3-4.4-6-3.8c-2.5,0.6-4.1,2.9-3.9,5.4L155.5,329.5z"/>
		<path class="st0" d="M190.8,339.8c1.1,0,2.2-0.4,3.1-1.1l45.5-36.4c2.3-1.5,2.9-4.7,1.3-6.9s-4.7-2.9-6.9-1.3
			c-0.2,0.2-0.4,0.3-0.6,0.5L187.7,331c-2.1,1.7-2.5,4.9-0.7,7C187.9,339.1,189.3,339.8,190.8,339.8L190.8,339.8z"/>
		<path class="st0" d="M231.1,287.1c-1.7-2.1-4.8-2.5-7-0.8l-45.5,36.4c-2.3,1.6-2.8,4.7-1.3,7c1.6,2.3,4.7,2.8,7,1.3
			c0.2-0.1,0.4-0.3,0.6-0.4l45.5-36.4C232.5,292.4,232.8,289.3,231.1,287.1z"/>
		<path class="st0" d="M167.6,317.3C167.6,317.3,167.6,317.4,167.6,317.3c0,0.2,0.1,0.3,0.1,0.5s0.1,0.3,0.1,0.5
			c0.1,0.1,0.1,0.2,0.2,0.4s0.1,0.3,0.2,0.5c0.1,0.1,0.1,0.2,0.2,0.3c0.1,0.1,0.2,0.3,0.3,0.4l0.3,0.3c0.1,0.1,0.3,0.3,0.4,0.4
			c0.1,0,0.1,0.1,0.2,0.1h0.1c0.4,0.2,0.8,0.4,1.2,0.6l0.2,0.1c0.4,0.1,0.9,0.2,1.3,0.2c0.3,0,0.5,0,0.8-0.1c0.1,0,0.2,0,0.2-0.1
			l0.4-0.1c0.2-0.1,0.5-0.2,0.7-0.2l0.3-0.2c0.2-0.1,0.5-0.3,0.7-0.5l0.2-0.2c0.3-0.2,0.5-0.5,0.7-0.8l0,0l18.2-26.3
			c1.4-2.4,0.6-5.4-1.8-6.9c-2.1-1.3-4.9-0.8-6.4,1.2l-11.1,16l-3.2-21c-0.2-2.8-2.7-4.8-5.4-4.5s-4.8,2.7-4.5,5.4
			c0,0.2,0,0.4,0.1,0.6L167.6,317.3z"/>
		<path class="st0" d="M126.9,350.7c0.4,2.7,3,4.6,5.7,4.1c1-0.2,1.9-0.6,2.6-1.3l10-9.5l4.1,14.3c0.7,2.7,3.5,4.2,6.2,3.5
			c0.7-0.2,1.3-0.5,1.8-1l13.1-10.8l5.6,14.7c1,2.6,3.9,3.9,6.5,2.9c1-0.4,1.8-1,2.3-1.9l7.1-10.6l14,11.6c2.2,1.6,5.4,1.2,7-1
			c1.5-2,1.2-4.9-0.6-6.6l-18.3-15c-1.1-0.9-2.5-1.3-3.9-1.1c-1.4,0.2-2.6,1-3.4,2.2l-4.8,7.1l-4.6-12.2c-1-2.6-3.9-3.9-6.5-2.9
			c-0.5,0.2-1,0.5-1.4,0.8l-12.5,10.3l-4.2-14.9c-0.8-2.7-3.5-4.2-6.2-3.4c-0.8,0.2-1.5,0.6-2,1.2l-9.1,8.7l-3.8-24
			c-0.2-2.8-2.7-4.8-5.4-4.5c-2.8,0.2-4.8,2.7-4.5,5.4c0,0.2,0.1,0.5,0.1,0.7L126.9,350.7z"/>
		<circle class="st0" cx="101.4" cy="477.6" r="5.7"/>
		<circle class="st0" cx="171.6" cy="489" r="5.7"/>
	</g>
</g>
</svg>
